#!OML:ASF H:\Not Pregnant\Project 1\Capture day 1\Session 1\non-pregnant.ASF
:FULLY-SPECIFIED
:DEGREES
2738
root 6.30926 11.576 10.3973 104.064 7.21755 -5.82856
lowerback 37.2887 -0.0274695 6.73319
upperback -4.66899 2.35608 -3.0553
thorax -25.0622 -0.45697 -8.68866
lowerneck 21.0532 -10.4192 -30.8768
upperneck 5.16515 -20.2037 38.3225
head 5.98221 -12.3105 19.5006
rclavicle -8.34896e-015 4.57205e-015
rhumerus 77.9417 -21.7117 -43.8921
rradius 29.3243
rwrist 16.5225
rhand -41.2122 -27.2304
rfingers 7.12502
rthumb -14.1361 303.27
lclavicle -8.34896e-015 4.57205e-015
lhumerus 79.9098 20.9931 22.3998
lradius 39.6243
lwrist 41.607
lhand -36.8006 -32.4079
lfingers 7.12502
lthumb -9.88223 -2.65983
rfemur -78.4051 1.70598 34.577
rtibia 38.6518
rfoot -44.1621 11.0596
rtoes -24.9708
lfemur -80.2942 1.72744 -12.371
ltibia 43.995
lfoot -42.9702 9.4973
ltoes -41.1819
2739
root 6.31489 11.5717 10.3837 104.291 7.33929 -5.7955
lowerback 37.439 0.00361163 6.77495
upperback -4.75955 2.44286 -3.00963
thorax -25.2482 -0.444512 -8.71744
lowerneck 21.0874 -10.5154 -30.8591
upperneck 4.98882 -20.3138 38.4196
head 5.98681 -12.381 19.5188
rclavicle -3.57812e-015 1.72943e-014
rhumerus 78.5645 -22.0474 -44.9011
rradius 29.1918
rwrist 17.6131
rhand -41.1918 -26.4172
rfingers 7.12502
rthumb -14.1164 304.082
lclavicle -3.57812e-015 1.72943e-014
lhumerus 80.2524 21.244 22.6783
lradius 39.5643
lwrist 41.3626
lhand -36.8051 -32.0438
lfingers 7.12502
lthumb -9.88657 -2.29596
rfemur -78.5718 1.40209 35.3732
rtibia 38.5489
rfoot -44.4495 11.371
rtoes -25.1434
lfemur -80.5671 1.77623 -12.1905
ltibia 43.9772
lfoot -43.04 9.3838
ltoes -41.3399
2740
root 6.31997 11.5667 10.371 104.531 7.45932 -5.75556
lowerback 37.5706 0.0653379 6.77957
upperback -4.84894 2.55709 -2.9423
thorax -25.4201 -0.413354 -8.71277
lowerneck 21.1226 -10.6167 -30.8185
upperneck 4.75303 -20.4173 38.5425
head 5.97192 -12.4508 19.5441
rclavicle 1.86858e-014 -8.54774e-015
rhumerus 79.2775 -22.3854 -46.0308
rradius 29.0229
rwrist 18.7895
rhand -41.2208 -25.5482
rfingers 7.12502
rthumb -14.1444 304.953
lclavicle 1.86858e-014 -8.54774e-015
lhumerus 80.6803 21.4592 23.1343
lradius 39.4757
lwrist 40.9939
lhand -36.8112 -31.6686
lfingers 7.12502
lthumb -9.89247 -1.92099
rfemur -78.7484 1.13258 36.119
rtibia 38.4431
rfoot -44.7297 11.6338
rtoes -25.3216
lfemur -80.8501 1.82591 -12.0072
ltibia 43.9659
lfoot -43.0939 9.23405
ltoes -41.4793
2741
root 6.32422 11.5616 10.3602 104.765 7.53155 -5.7171
lowerback 37.7031 0.161672 6.7072
upperback -4.93367 2.68217 -2.86679
thorax -25.588 -0.365767 -8.66076
lowerneck 21.1737 -10.7317 -30.741
upperneck 4.45497 -20.522 38.6577
head 5.9293 -12.5214 19.552
rclavicle -3.37934e-014 -4.77083e-015
rhumerus 80.0598 -22.7173 -47.2408
rradius 28.8262
rwrist 19.9986
rhand -41.3013 -24.637
rfingers 7.12502
rthumb -14.222 305.87
lclavicle -3.37934e-014 -4.77083e-015
lhumerus 81.1927 21.6309 23.7714
lradius 39.3563
lwrist 40.4912
lhand -36.8162 -31.2873
lfingers 7.12502
lthumb -9.89733 -1.53992
rfemur -78.9233 0.890784 36.7556
rtibia 38.3379
rfoot -44.998 11.8423
rtoes -25.4871
lfemur -81.1137 1.86458 -11.8713
ltibia 43.9541
lfoot -43.1403 9.05623
ltoes -41.6081
2742
root 6.3277 11.5566 10.3509 104.991 7.57472 -5.67516
lowerback 37.8368 0.280494 6.58554
upperback -5.01599 2.815 -2.78394
thorax -25.7553 -0.307142 -8.57657
lowerneck 21.2222 -10.8469 -30.6507
upperneck 4.11302 -20.6178 38.7962
head 5.87263 -12.5902 19.5698
rclavicle 3.97569e-016 1.5704e-014
rhumerus 80.8762 -23.0351 -48.4776
rradius 28.6207
rwrist 21.176
rhand -41.4116 -23.6788
rfingers 7.12502
rthumb -14.3282 306.836
lclavicle 3.97569e-016 1.5704e-014
lhumerus 81.7777 21.7596 24.5612
lradius 39.2122
lwrist 39.8693
lhand -36.8246 -30.9157
lfingers 7.12502
lthumb -9.90543 -1.16875
rfemur -79.1037 0.986042 36.7851
rtibia 38.2344
rfoot -45.1172 11.4554
rtoes -25.6225
lfemur -81.3598 1.89183 -11.7632
ltibia 43.9377
lfoot -43.1755 8.86061
ltoes -41.7225
